<svg xmlns="http://www.w3.org/2000/svg" width="14.748" height="14.748" viewBox="0 0 14.748 14.748">
  <path id="Icon_metro-qrcode" data-name="Icon metro-qrcode" d="M7.18,2.85H3.492V6.537H7.18ZM8.1,1.928V7.459H2.571V1.928ZM4.414,3.772H6.258V5.615H4.414ZM16.4,2.85H12.71V6.537H16.4Zm.922-.922V7.459H11.788V1.928h5.531ZM13.632,3.772h1.844V5.615H13.632Zm-6.452,8.3H3.492v3.687H7.18Zm.922-.922v5.531H2.571V11.146ZM4.414,12.989H6.258v1.844H4.414ZM9.023,1.928h.922V2.85H9.023Zm.922.922h.922v.922H9.945Zm-.922.922h.922v.922H9.023Zm.922.922h.922v.922H9.945Zm-.922.922h.922v.922H9.023Zm.922.922h.922v.922H9.945Zm-.922.922h.922V8.38H9.023Zm0,1.844h.922v.922H9.023Zm.922.922h.922v.922H9.945Zm-.922.922h.922v.922H9.023Zm.922.922h.922v.922H9.945Zm-.922.922h.922v.922H9.023Zm.922.922h.922v.922H9.945Zm-.922.922h.922v.922H9.023Zm.922.922h.922v.922H9.945ZM16.4,9.3h.922v.922H16.4Zm-12.9,0h.922v.922H3.492Zm.922-.922h.922V9.3H4.414Zm-1.844,0h.922V9.3H2.571Zm3.687,0H7.18V9.3H6.258ZM7.18,9.3H8.1v.922H7.18ZM8.1,8.38h.922V9.3H8.1Zm2.765.922h.922v.922h-.922Zm.922-.922h.922V9.3h-.922Zm.922.922h.922v.922H12.71Zm.922-.922h.922V9.3h-.922Zm.922.922h.922v.922h-.922Zm.922-.922H16.4V9.3h-.922Zm.922,2.765h.922v.922H16.4Zm-5.531,0h.922v.922h-.922Zm.922-.922h.922v.922h-.922Zm.922.922h.922v.922H12.71Zm1.844,0h.922v.922h-.922Zm.922-.922H16.4v.922h-.922Zm.922,2.765h.922v.922H16.4Zm-5.531,0h.922v.922h-.922Zm.922-.922h.922v.922h-.922Zm1.844,0h.922v.922h-.922Zm.922.922h.922v.922h-.922Zm.922-.922H16.4v.922h-.922Zm.922,2.765h.922v.922H16.4Zm-4.609-.922h.922v.922h-.922Zm.922.922h.922v.922H12.71Zm.922-.922h.922v.922h-.922Zm.922.922h.922v.922h-.922Zm-2.765.922h.922v.922h-.922Zm1.844,0h.922v.922h-.922Zm1.844,0H16.4v.922h-.922Z" transform="translate(-2.571 -1.928)" fill="#fff"/>
</svg>
