<svg xmlns="http://www.w3.org/2000/svg" width="89.617" height="89.617" viewBox="0 0 89.617 89.617">
  <g id="cancel-svgrepo-com" transform="translate(-0.001)">
    <g id="Group_31230" data-name="Group 31230" transform="translate(0.001)">
      <path id="Path_1978" data-name="Path 1978" d="M44.809,0A44.809,44.809,0,1,0,89.618,44.808,44.809,44.809,0,0,0,44.809,0Zm16.9,61.886a4.579,4.579,0,0,1-6.475,0l-10.2-10.2-10.66,10.66a4.579,4.579,0,1,1-6.474-6.476L38.566,45.215l-9.925-9.924a4.579,4.579,0,0,1,6.476-6.476l9.924,9.924L54.5,29.278a4.579,4.579,0,1,1,6.475,6.476l-9.46,9.461,10.2,10.2A4.579,4.579,0,0,1,61.712,61.886Z" transform="translate(-0.001)" fill="#c21515"/>
    </g>
  </g>
</svg>
