<svg xmlns="http://www.w3.org/2000/svg" width="14.668" height="18.335" viewBox="0 0 10.668 13.335">
  <g id="Icon_ionic-ios-copy" data-name="Icon ionic-ios-copy" transform="translate(-4.5 -1.125)">
    <path id="Path_155" data-name="Path 155" d="M23.938,3.88h2.5a.167.167,0,0,0,.167-.167h0a.775.775,0,0,0-.278-.592L24.185,1.338a1.039,1.039,0,0,0-.572-.206h0a.205.205,0,0,0-.206.206V3.352A.532.532,0,0,0,23.938,3.88Z" transform="translate(-11.437 -0.004)" fill="#e5b945"/>
    <path id="Path_156" data-name="Path 156" d="M14.653,3.347V1.125H11.014a.892.892,0,0,0-.889.889v9.334a.892.892,0,0,0,.889.889h6.667a.892.892,0,0,0,.889-.889V4.6H15.9A1.252,1.252,0,0,1,14.653,3.347Z" transform="translate(-3.403)" fill="#e5b945"/>
    <path id="Path_157" data-name="Path 157" d="M5.945,14.848V5.625H5.389a.892.892,0,0,0-.889.889v9.779a.892.892,0,0,0,.889.889H12.5a.892.892,0,0,0,.889-.889v-.556H6.834A.892.892,0,0,1,5.945,14.848Z" transform="translate(0 -2.722)" fill="#e5b945"/>
  </g>
</svg>
