<svg xmlns="http://www.w3.org/2000/svg" width="15.077" height="14" viewBox="0 0 15.077 14">
  <path id="Icon_ionic-ios-star" data-name="Icon ionic-ios-star" d="M16.755,8.221H11.8L10.3,3.732a.545.545,0,0,0-1.023,0l-1.5,4.489H2.788a.54.54,0,0,0-.538.538.4.4,0,0,0,.01.091.517.517,0,0,0,.225.38L6.554,12.1l-1.562,4.54a.54.54,0,0,0,.185.606.521.521,0,0,0,.3.131.66.66,0,0,0,.337-.121l3.971-2.83,3.971,2.83a.631.631,0,0,0,.337.121.483.483,0,0,0,.3-.131.533.533,0,0,0,.185-.606L13.019,12.1,17.054,9.2l.1-.084a.515.515,0,0,0-.4-.9Z" transform="translate(-2.25 -3.375)" fill="#ff8b06"/>
</svg>
