<svg xmlns="http://www.w3.org/2000/svg" width="11.105" height="10.312" viewBox="0 0 11.105 10.312">
  <path id="Icon_ionic-ios-star" data-name="Icon ionic-ios-star" d="M12.934,6.945H9.288L8.18,3.638a.4.4,0,0,0-.754,0L6.318,6.945H2.647a.4.4,0,0,0-.4.4.291.291,0,0,0,.007.067.381.381,0,0,0,.166.28l3,2.112L4.27,13.144a.4.4,0,0,0,.136.446.384.384,0,0,0,.223.1.486.486,0,0,0,.248-.089L7.8,11.513,10.728,13.6a.465.465,0,0,0,.248.089.356.356,0,0,0,.221-.1.393.393,0,0,0,.136-.446L10.182,9.8l2.972-2.132.072-.062a.379.379,0,0,0-.293-.662Z" transform="translate(-2.25 -3.375)" fill="#ff8b06"/>
</svg>
