<svg xmlns="http://www.w3.org/2000/svg" width="12.098" height="13.826" viewBox="0 0 12.098 13.826">
  <path id="Icon_awesome-copy" data-name="Icon awesome-copy" d="M8.641,12.1v1.08a.648.648,0,0,1-.648.648H.648A.648.648,0,0,1,0,13.178V3.24a.648.648,0,0,1,.648-.648H2.592v7.993A1.514,1.514,0,0,0,4.1,12.1Zm0-9.289V0H4.1a.648.648,0,0,0-.648.648v9.937a.648.648,0,0,0,.648.648H11.45a.648.648,0,0,0,.648-.648V3.456H9.289A.65.65,0,0,1,8.641,2.808Zm3.267-.838L10.127.19A.648.648,0,0,0,9.669,0H9.505V2.592H12.1V2.429a.648.648,0,0,0-.19-.458Z" fill="#fff"/>
</svg>
